# xmcd CD database file
#
# Track frame offsets:
#	182
#	13432
#	26767
#	42032
#	59282
#	70640
#	83097
#	96577
#	107085
#	122207
#	132955
#	143400
#	158417
#	169047
#	180625
#	190760
#	206232
#	219322
#	233460
#	247607
#	262425
#	273962
#	284882
#	296582
#	312680
#
# Disc length: 4367 seconds
#
# Revision: 0
# Processed by: cddbd v1.5PL3 Copyright (c) Steve Scherf et al.
# Submitted via: CDex 1.51
#
DISCID=74110d19
DTITLE=Kenny Rogers - Ruby
DYEAR=1900
DGENRE=Country
TTITLE0=Ruby Dont Take Your Love To Town
TTITLE1=Sleep comes easy
TTITLE2=For The Good Times
TTITLE3=Somethings Burning
TTITLE4=Hurry Up Love
TTITLE5=Reuben James
TTITLE6=Shine On Ruby Mountain
TTITLE7=Ticket To Nowhere
TTITLE8=Conditions (Just Dropped In)
TTITLE9=She Even Woke Me Up To Say Goodbye
TTITLE10=Trying Just As Hard
TTITLE11=Heed The Call
TTITLE12=We All Got To Help Each Other
TTITLE13=A Poem For My Little Lady
TTITLE14=Where Does My Rosy Go
TTITLE15=My Washington Woman
TTITLE16=Run Thru Your Mind
TTITLE17=Sunshine
TTITLE18=Loser
TTITLE19=Church Without A Name
TTITLE20=Me And Bobbie McGhee
TTITLE21=Always Leaving Always Gone
TTITLE22=Calico Silver
TTITLE23=The Way It Used To Be
TTITLE24=After All (I Live My Life)
EXTD=
EXTT0=
EXTT1=
EXTT2=
EXTT3=
EXTT4=
EXTT5=
EXTT6=
EXTT7=
EXTT8=
EXTT9=
EXTT10=
EXTT11=
EXTT12=
EXTT13=
EXTT14=
EXTT15=
EXTT16=
EXTT17=
EXTT18=
EXTT19=
EXTT20=
EXTT21=
EXTT22=
EXTT23=
EXTT24=
PLAYORDER=
